<?xml version="1.0" encoding="UTF-8" standalone="no"?>
<!-- Creator: CorelDRAW X7 -->
<svg xmlns:dc="http://purl.org/dc/elements/1.1/" xmlns:cc="http://creativecommons.org/ns#" xmlns:rdf="http://www.w3.org/1999/02/22-rdf-syntax-ns#" xmlns:svg="http://www.w3.org/2000/svg" xmlns="http://www.w3.org/2000/svg" xmlns:xlink="http://www.w3.org/1999/xlink" xmlns:sodipodi="http://sodipodi.sourceforge.net/DTD/sodipodi-0.dtd" xmlns:inkscape="http://www.inkscape.org/namespaces/inkscape" xml:space="preserve" width="120mm" height="67.817mm" version="1.1" style="shape-rendering:geometricPrecision; text-rendering:geometricPrecision; image-rendering:optimizeQuality; fill-rule:evenodd; clip-rule:evenodd" viewBox="0 0 12000 6782" id="svg2" inkscape:version="0.48.4 r9939" sodipodi:docname="陸軍軍徽.svg"><metadata id="metadata370"><rdf:RDF><cc:Work rdf:about=""><dc:format>image/svg+xml</dc:format><dc:type rdf:resource="http://purl.org/dc/dcmitype/StillImage"/><dc:title/></cc:Work></rdf:RDF></metadata><sodipodi:namedview pagecolor="#ffffff" bordercolor="#666666" borderopacity="1" objecttolerance="10" gridtolerance="10" guidetolerance="10" inkscape:pageopacity="0" inkscape:pageshadow="2" inkscape:window-width="1366" inkscape:window-height="705" id="namedview368" showgrid="false" inkscape:zoom="2.7093334" inkscape:cx="150.95964" inkscape:cy="164.43957" inkscape:window-x="-8" inkscape:window-y="-8" inkscape:window-maximized="1" inkscape:current-layer="svg2"/>
 <defs id="defs4">
  <style type="text/css" id="style6">
   
    .str1 {stroke:#332C2B;stroke-width:7.62}
    .str0 {stroke:#332C2B;stroke-width:2.54}
    .fil1 {fill:none}
    .fil0 {fill:#332C2B}
    .fil4 {fill:blue}
    .fil42 {fill:url(#id0)}
    .fil9 {fill:url(#id1)}
    .fil43 {fill:url(#id2)}
    .fil14 {fill:url(#id3)}
    .fil36 {fill:url(#id4)}
    .fil50 {fill:url(#id5)}
    .fil53 {fill:url(#id6)}
    .fil47 {fill:url(#id7)}
    .fil23 {fill:url(#id8)}
    .fil49 {fill:url(#id9)}
    .fil48 {fill:url(#id10)}
    .fil46 {fill:url(#id11)}
    .fil3 {fill:url(#id12)}
    .fil2 {fill:url(#id13)}
    .fil5 {fill:url(#id14)}
    .fil52 {fill:url(#id15)}
    .fil44 {fill:url(#id16)}
    .fil12 {fill:url(#id17)}
    .fil25 {fill:url(#id18)}
    .fil28 {fill:url(#id19)}
    .fil22 {fill:url(#id20)}
    .fil27 {fill:url(#id21)}
    .fil10 {fill:url(#id22)}
    .fil45 {fill:url(#id23)}
    .fil41 {fill:url(#id24)}
    .fil24 {fill:url(#id25)}
    .fil11 {fill:url(#id26)}
    .fil26 {fill:url(#id27)}
    .fil8 {fill:url(#id28)}
    .fil13 {fill:url(#id29)}
    .fil7 {fill:url(#id30)}
    .fil51 {fill:url(#id31)}
    .fil21 {fill:url(#id32)}
    .fil40 {fill:url(#id33)}
    .fil35 {fill:url(#id34)}
    .fil39 {fill:url(#id35)}
    .fil37 {fill:url(#id36)}
    .fil38 {fill:url(#id37)}
    .fil6 {fill:url(#id38)}
    .fil33 {fill:url(#id39)}
    .fil20 {fill:url(#id40)}
    .fil19 {fill:url(#id41)}
    .fil34 {fill:url(#id42)}
    .fil29 {fill:url(#id43)}
    .fil15 {fill:url(#id44)}
    .fil16 {fill:url(#id45)}
    .fil32 {fill:url(#id46)}
    .fil30 {fill:url(#id47)}
    .fil31 {fill:url(#id48)}
    .fil18 {fill:url(#id49)}
    .fil17 {fill:url(#id50)}
   
  </style>
  <linearGradient id="id0" gradientUnits="userSpaceOnUse" x1="4625.86" y1="4488.25" x2="4811.41" y2="4503.66">
   <stop offset="0" style="stop-opacity:1; stop-color:#EEEEEF" id="stop9"/>
   <stop offset="1" style="stop-opacity:1; stop-color:#B6B6B7" id="stop11"/>
  </linearGradient>
  <linearGradient id="id1" gradientUnits="userSpaceOnUse" x1="1538.45" y1="1804.12" x2="2019.05" y2="1818.51">
   <stop offset="0" style="stop-opacity:1; stop-color:#623620" id="stop14"/>
   <stop offset="0.121569" style="stop-opacity:1; stop-color:#CC9E20" id="stop16"/>
   <stop offset="0.239216" style="stop-opacity:1; stop-color:#FFFCDB" id="stop18"/>
   <stop offset="0.521569" style="stop-opacity:1; stop-color:#CF9A30" id="stop20"/>
   <stop offset="1" style="stop-opacity:1; stop-color:#6B302C" id="stop22"/>
  </linearGradient>
  <linearGradient id="id2" gradientUnits="userSpaceOnUse" xlink:href="#id0" x1="4809.04" y1="4405.86" x2="4993.71" y2="4421.11">
  </linearGradient>
  <linearGradient id="id3" gradientUnits="userSpaceOnUse" xlink:href="#id1" x1="3304.05" y1="1296.15" x2="3594.67" y2="2139.87">
  </linearGradient>
  <linearGradient id="id4" gradientUnits="userSpaceOnUse" xlink:href="#id0" x1="4528.13" y1="5008.91" x2="4723.36" y2="5043.31">
  </linearGradient>
  <linearGradient id="id5" gradientUnits="userSpaceOnUse" x1="8943.33" y1="6240.1" x2="9136.06" y2="6462.47">
   <stop offset="0" style="stop-opacity:1; stop-color:#DCDDDD" id="stop28"/>
   <stop offset="0.109804" style="stop-opacity:1; stop-color:#F7F7F7" id="stop30"/>
   <stop offset="1" style="stop-opacity:1; stop-color:#C9CACA" id="stop32"/>
  </linearGradient>
  <linearGradient id="id6" gradientUnits="userSpaceOnUse" x1="5661.14" y1="1259.58" x2="6333.6" y2="1817.87">
   <stop offset="0" style="stop-opacity:1; stop-color:#FEFEFE" id="stop35"/>
   <stop offset="0.231373" style="stop-opacity:1; stop-color:#FEFEFE" id="stop37"/>
   <stop offset="0.490196" style="stop-opacity:1; stop-color:#DCDDDD" id="stop39"/>
   <stop offset="0.65098" style="stop-opacity:1; stop-color:#FEFEFE" id="stop41"/>
   <stop offset="0.878431" style="stop-opacity:1; stop-color:#C9CACA" id="stop43"/>
   <stop offset="1" style="stop-opacity:1; stop-color:#EEEEEF" id="stop45"/>
  </linearGradient>
  <linearGradient id="id7" gradientUnits="userSpaceOnUse" xlink:href="#id5" x1="8346.22" y1="5809.8" x2="8538.64" y2="6032.13">
  </linearGradient>
  <linearGradient id="id8" gradientUnits="userSpaceOnUse" xlink:href="#id1" x1="10459.1" y1="1799.62" x2="9962.5" y2="1823">
  </linearGradient>
  <linearGradient id="id9" gradientUnits="userSpaceOnUse" xlink:href="#id5" x1="8745.45" y1="6097.34" x2="8938.08" y2="6319.71">
  </linearGradient>
  <linearGradient id="id10" gradientUnits="userSpaceOnUse" xlink:href="#id5" x1="8547.62" y1="5954.78" x2="8740.05" y2="6177.1">
  </linearGradient>
  <linearGradient id="id11" gradientUnits="userSpaceOnUse" xlink:href="#id5" x1="8143.08" y1="5663.09" x2="8335.5" y2="5885.42">
  </linearGradient>
  <linearGradient id="id12" gradientUnits="objectBoundingBox" xlink:href="#id6" x1="10.9825%" y1="17.6348%" x2="89.0175%" y2="82.3652%">
  </linearGradient>
  <linearGradient id="id13" gradientUnits="userSpaceOnUse" x1="4920.52" y1="460.13" x2="7075.96" y2="2615.58">
   <stop offset="0" style="stop-opacity:1; stop-color:#536FB4" id="stop54"/>
   <stop offset="0.490196" style="stop-opacity:1; stop-color:#2F318B" id="stop56"/>
   <stop offset="1" style="stop-opacity:1; stop-color:#26225E" id="stop58"/>
  </linearGradient>
  <linearGradient id="id14" gradientUnits="userSpaceOnUse" xlink:href="#id6" x1="5662.01" y1="1258.72" x2="6334.47" y2="1817">
  </linearGradient>
  <linearGradient id="id15" gradientUnits="userSpaceOnUse" xlink:href="#id13" x1="4920.21" y1="459.71" x2="7076.27" y2="2615.14">
  </linearGradient>
  <linearGradient id="id16" gradientUnits="userSpaceOnUse" xlink:href="#id0" x1="4993.95" y1="4321.58" x2="5179.49" y2="4336.97">
  </linearGradient>
  <linearGradient id="id17" gradientUnits="userSpaceOnUse" xlink:href="#id1" x1="2988.95" y1="1927.13" x2="3367.12" y2="2833.89">
  </linearGradient>
  <linearGradient id="id18" gradientUnits="userSpaceOnUse" xlink:href="#id1" x1="8454.27" y1="754.09" x2="8243.88" y2="1519.17">
  </linearGradient>
  <linearGradient id="id19" gradientUnits="userSpaceOnUse" xlink:href="#id1" x1="8677.85" y1="1300.01" x2="8402.51" y2="2136.01">
  </linearGradient>
  <linearGradient id="id20" gradientUnits="userSpaceOnUse" xlink:href="#id1" x1="11011.2" y1="2923.3" x2="10038" y2="2679.73">
  </linearGradient>
  <linearGradient id="id21" gradientUnits="userSpaceOnUse" xlink:href="#id1" x1="9248.57" y1="2580.2" x2="8798.83" y2="3520.54">
  </linearGradient>
  <linearGradient id="id22" gradientUnits="userSpaceOnUse" xlink:href="#id1" x1="2114.56" y1="1024.66" x2="3092.95" y2="1331.91">
  </linearGradient>
  <linearGradient id="id23" gradientUnits="userSpaceOnUse" x1="6639.15" y1="2926.41" x2="5316.85" y2="5790.61">
   <stop offset="0" style="stop-opacity:1; stop-color:#FEFEFE" id="stop70"/>
   <stop offset="0.870588" style="stop-opacity:1; stop-color:#B6B6B7" id="stop72"/>
   <stop offset="1" style="stop-opacity:1; stop-color:#8B8B8C" id="stop74"/>
  </linearGradient>
  <linearGradient id="id24" gradientUnits="userSpaceOnUse" xlink:href="#id0" x1="4499.98" y1="3327.18" x2="5806.68" y2="6656.72">
  </linearGradient>
  <linearGradient id="id25" gradientUnits="userSpaceOnUse" xlink:href="#id1" x1="9877.83" y1="1016.45" x2="8893.73" y2="1340.12">
  </linearGradient>
  <linearGradient id="id26" gradientUnits="userSpaceOnUse" xlink:href="#id1" x1="3529.15" y1="749.57" x2="3751.77" y2="1523.69">
  </linearGradient>
  <linearGradient id="id27" gradientUnits="userSpaceOnUse" xlink:href="#id1" x1="8991.31" y1="1929.64" x2="8631.7" y2="2831.38">
  </linearGradient>
  <linearGradient id="id28" gradientUnits="userSpaceOnUse" xlink:href="#id1" x1="981.52" y1="2917.17" x2="1948.43" y2="2685.87">
  </linearGradient>
  <linearGradient id="id29" gradientUnits="userSpaceOnUse" xlink:href="#id1" x1="2730.43" y1="2579.72" x2="3201.25" y2="3521.03">
  </linearGradient>
  <linearGradient id="id30" gradientUnits="userSpaceOnUse" x1="3040.65" y1="2732.73" x2="2066" y2="2674.74">
   <stop offset="0" style="stop-opacity:1; stop-color:#623620" id="stop83"/>
   <stop offset="0.121569" style="stop-opacity:1; stop-color:#CC9E20" id="stop85"/>
   <stop offset="0.239216" style="stop-opacity:1; stop-color:white" id="stop87"/>
   <stop offset="0.521569" style="stop-opacity:1; stop-color:#CF9A30" id="stop89"/>
   <stop offset="1" style="stop-opacity:1; stop-color:#662D29" id="stop91"/>
  </linearGradient>
  <linearGradient id="id31" gradientUnits="userSpaceOnUse" x1="8301.66" y1="5521.87" x2="9046.21" y2="6335.82">
   <stop offset="0" style="stop-opacity:1; stop-color:#DCDDDD" id="stop94"/>
   <stop offset="0.478431" style="stop-opacity:1; stop-color:#F7F7F7" id="stop96"/>
   <stop offset="1" style="stop-opacity:1; stop-color:#DCDDDD" id="stop98"/>
  </linearGradient>
  <linearGradient id="id32" gradientUnits="userSpaceOnUse" xlink:href="#id30" x1="8973.84" y1="2721.22" x2="9898.58" y2="2686.25">
  </linearGradient>
  <linearGradient id="id33" gradientUnits="userSpaceOnUse" xlink:href="#id0" x1="4307.78" y1="4928.42" x2="4882.51" y2="4997.77">
  </linearGradient>
  <linearGradient id="id34" gradientUnits="userSpaceOnUse" x1="7796.52" y1="2807.64" x2="7851.27" y2="2943.6">
   <stop offset="0" style="stop-opacity:1; stop-color:#FEFEFE" id="stop103"/>
   <stop offset="1" style="stop-opacity:1; stop-color:#C9CACA" id="stop105"/>
  </linearGradient>
  <linearGradient id="id35" gradientUnits="userSpaceOnUse" xlink:href="#id34" x1="7789.6" y1="2898.25" x2="7888.57" y2="3210.65">
  </linearGradient>
  <linearGradient id="id36" gradientUnits="userSpaceOnUse" xlink:href="#id34" x1="6416.33" y1="3122.59" x2="6658.36" y2="4169.55">
  </linearGradient>
  <linearGradient id="id37" gradientUnits="userSpaceOnUse" xlink:href="#id34" x1="7477.86" y1="3146.62" x2="7662.94" y2="3454.5">
  </linearGradient>
  <linearGradient id="id38" gradientUnits="userSpaceOnUse" xlink:href="#id1" x1="5933.57" y1="5925.74" x2="6055.97" y2="5925.74">
  </linearGradient>
  <linearGradient id="id39" gradientUnits="userSpaceOnUse" xlink:href="#id1" x1="6257.37" y1="5925.74" x2="6134.97" y2="5925.74">
  </linearGradient>
  <linearGradient id="id40" gradientUnits="userSpaceOnUse" xlink:href="#id1" x1="5607.05" y1="6299.71" x2="5739.49" y2="6321.41">
  </linearGradient>
  <linearGradient id="id41" gradientUnits="userSpaceOnUse" xlink:href="#id1" x1="5732.16" y1="5925.74" x2="5854.57" y2="5925.74">
  </linearGradient>
  <linearGradient id="id42" gradientUnits="userSpaceOnUse" xlink:href="#id1" x1="6383.2" y1="6298.75" x2="6249.34" y2="6322.37">
  </linearGradient>
  <radialGradient id="id43" gradientUnits="userSpaceOnUse" gradientTransform="matrix(1.03875 -0 -0 1.03876 -346 -207)" cx="8931.18" cy="5333.15" r="7589.52" fx="8931.18" fy="5333.15">
   <stop offset="0" style="stop-opacity:1; stop-color:#6B302C" id="stop116"/>
   <stop offset="0.478431" style="stop-opacity:1; stop-color:#CF9A30" id="stop118"/>
   <stop offset="0.760784" style="stop-opacity:1; stop-color:#FFFCDB" id="stop120"/>
   <stop offset="0.878431" style="stop-opacity:1; stop-color:#CC9E20" id="stop122"/>
   <stop offset="1" style="stop-opacity:1; stop-color:#623620" id="stop124"/>
  </radialGradient>
  <radialGradient id="id44" gradientUnits="userSpaceOnUse" gradientTransform="matrix(1.03875 -0 -0 1.03876 -119 -207)" xlink:href="#id43" cx="3058.36" cy="5333.15" r="7589.52" fx="3058.36" fy="5333.15">
  </radialGradient>
  <radialGradient id="id45" gradientUnits="userSpaceOnUse" gradientTransform="matrix(1.34903 -0 -0 1.34903 -1520 -1630)" xlink:href="#id43" cx="4355.33" cy="4670.85" r="3794.76" fx="4355.33" fy="4670.85">
  </radialGradient>
  <radialGradient id="id46" gradientUnits="userSpaceOnUse" gradientTransform="matrix(1.50783 -0 -0 1.50783 -4092 -2484)" xlink:href="#id43" cx="8057.36" cy="4890.6" r="4575.33" fx="8057.36" fy="4890.6">
  </radialGradient>
  <radialGradient id="id47" gradientUnits="userSpaceOnUse" gradientTransform="matrix(1.34903 -0 -0 1.34903 -2665 -1630)" xlink:href="#id43" cx="7634.21" cy="4670.85" r="3794.76" fx="7634.21" fy="4670.85">
  </radialGradient>
  <radialGradient id="id48" gradientUnits="userSpaceOnUse" gradientTransform="matrix(1.30672 -0 -0 1.30672 -2618 -1457)" xlink:href="#id43" cx="8536.91" cy="4749.08" r="8251.19" fx="8536.91" fy="4749.08">
  </radialGradient>
  <radialGradient id="id49" gradientUnits="userSpaceOnUse" gradientTransform="matrix(1.50782 -0 -0 1.50784 -1997 -2484)" xlink:href="#id43" cx="3932.17" cy="4890.6" r="4575.33" fx="3932.17" fy="4890.6">
  </radialGradient>
  <radialGradient id="id50" gradientUnits="userSpaceOnUse" gradientTransform="matrix(1.30672 -0 -0 1.30672 -1059 -1457)" xlink:href="#id43" cx="3452.63" cy="4749.08" r="8251.19" fx="3452.63" fy="4749.08">
  </radialGradient>
 <linearGradient inkscape:collect="always" xlink:href="#id13" id="linearGradient4121" x1="5466" y1="1537" x2="6532" y2="1537" gradientUnits="userSpaceOnUse" gradientTransform="matrix(0.70710678,0.70710678,-0.70710678,0.70710678,2843.8895,-3791.7567)"/></defs>
 <g id="圖層_x0020_1">
  <metadata id="CorelCorpID_0Corel-Layer"/>
  <g id="_811705548496">
   <path class="fil0 str0" d="M8974 1357l38 -47c766,633 1095,1501 902,2759l-126 98c234,-1334 -114,-2248 -814,-2810z" id="path136"/>
   <path class="fil0 str0" d="M11019 2179c9,6 6,43 3,53 -26,133 -64,422 -287,737 -231,329 -499,462 -606,517 -2,1 -25,12 -32,8 -3,-3 -3,-28 -3,-32 6,-117 48,-418 277,-747 222,-317 486,-461 598,-521 7,-5 42,-22 50,-15z" id="path138"/>
   <path class="fil0 str0" d="M10246 1043c10,0 32,33 33,39 52,125 188,384 188,771 0,401 -143,663 -199,770 -1,3 -16,26 -22,26 -7,0 -20,-19 -21,-26 -65,-99 -201,-369 -201,-770 0,-387 133,-654 190,-771 4,-6 21,-39 32,-39z" id="path140"/>
   <path class="fil0 str0" d="M8962 556c8,-7 41,10 47,14 118,69 376,204 598,523 229,327 263,626 278,744 0,5 1,30 -2,34 -6,4 -27,-4 -32,-8 -109,-45 -377,-188 -606,-515 -224,-318 -269,-616 -289,-739 0,-11 -3,-46 6,-53z" id="path142"/>
   <path class="fil0 str0" d="M7629 892c4,-7 40,-15 48,-15 135,-10 424,-47 789,86 375,136 575,362 655,450 3,5 20,23 18,30 -2,7 -26,10 -32,10 -114,25 -418,64 -794,-73 -365,-133 -569,-350 -657,-442 -5,-7 -30,-35 -27,-46z" id="path144"/>
   <path class="fil0 str0" d="M8152 2014c4,-8 42,-10 50,-8 135,15 425,30 761,222 347,200 504,457 568,558 1,4 15,25 10,32 -2,7 -27,7 -32,7 -118,3 -421,-11 -767,-211 -337,-195 -502,-446 -573,-550 -4,-10 -24,-39 -17,-50z" id="path146"/>
   <path class="fil0 str0" d="M8401 2626c5,-9 44,-7 50,-4 133,27 422,65 741,289 326,226 461,497 515,605 0,2 13,25 10,31 -5,4 -28,4 -35,2 -115,-4 -417,-47 -746,-276 -319,-222 -460,-487 -520,-598 -5,-7 -21,-41 -15,-49z" id="path148"/>
   <path class="fil0 str0" d="M7848 1411c4,-11 42,-12 49,-12 134,4 426,-9 777,155 364,170 543,410 614,507 3,3 17,23 15,29 -5,6 -28,9 -32,9 -118,15 -421,27 -783,-143 -354,-163 -540,-399 -619,-498 -4,-6 -27,-37 -21,-47z" id="path150"/>
   <path class="fil0 str0" d="M6377 6095c973,-3 1909,32 2723,-545 787,-616 1572,-738 2460,-449 -205,-428 -718,-585 -1686,-353 -1833,1169 -1672,1167 -3502,1211l5 136z" id="path152"/>
   <path class="fil0 str0" d="M6377 5875c1840,-66 2484,-520 2589,-1904 -181,-212 -475,-439 -751,-434 798,912 -27,2234 -1843,2237l5 101z" id="path154"/>
   <path class="fil0 str0" d="M6377 6095c973,-3 1909,32 2723,-545 224,-175 431,-392 639,-610 413,-566 1325,-1390 2273,-1211 -818,-419 -1784,-199 -2526,695 -587,1559 -2073,1493 -3114,1573l5 98z" id="path156"/>
   <path class="fil0 str0" d="M6377 5995c1577,-64 2566,-179 3109,-1571 85,-616 -232,-1094 -907,-1103 221,106 391,418 375,650 -56,1444 -996,1861 -2582,1903l5 121z" id="path158"/>
   <path class="fil1 str0" d="M8021 5582c945,-920 945,-1636 198,-2037" id="path160"/>
   <path class="fil1 str0" d="M8947 5317c254,-155 419,-363 555,-535 743,-945 1534,-1330 2468,-1073" id="path162"/>
   <path class="fil1 str0" d="M9702 4987c744,-271 1377,-277 1848,108" id="path164"/>
   <path class="fil1 str0" d="M8592 3330c924,267 822,1340 -93,2280" id="path166"/>
   <path class="fil0 str0" d="M6257 6209l-53 0c-20,0 -34,-15 -34,-36l0 -426c0,-20 14,-35 34,-35l53 0c20,0 35,15 35,35l0 426c0,21 -15,36 -35,36z" id="path168"/>
   <path class="fil0 str0" d="M6046 6209l-53 0c-20,0 -34,-15 -34,-36l0 -426c0,-20 14,-35 34,-35l53 0c20,0 35,15 35,35l0 426c0,21 -15,36 -35,36z" id="path170"/>
   <path class="fil0 str0" d="M6316 6256l3 -1c26,-10 47,1 56,26l36 99c10,25 0,46 -26,55l-3 1c-25,9 -46,-1 -55,-26l-37 -99c-8,-24 2,-46 26,-55z" id="path172"/>
   <path class="fil0 str0" d="M3085 1357l-38 -47c-766,633 -1095,1501 -902,2759l126 98c-234,-1334 114,-2248 814,-2810z" id="path174"/>
   <path class="fil0 str0" d="M1040 2179c-9,6 -6,43 -3,53 26,133 64,422 287,737 231,329 499,462 606,517 2,1 25,12 32,8 3,-3 3,-28 3,-32 -6,-117 -48,-418 -277,-747 -222,-317 -486,-461 -598,-521 -7,-5 -42,-22 -50,-15z" id="path176"/>
   <path class="fil0 str0" d="M1813 1043c-10,0 -32,33 -33,39 -52,125 -188,384 -188,771 0,401 143,663 199,770 1,3 16,26 22,26 7,0 20,-19 21,-26 65,-99 201,-369 201,-770 0,-387 -133,-654 -190,-771 -4,-6 -21,-39 -32,-39z" id="path178"/>
   <path class="fil0 str0" d="M3097 556c-8,-7 -41,10 -47,14 -118,69 -376,204 -598,523 -229,327 -263,626 -278,744 0,5 -1,30 2,34 6,4 27,-4 32,-8 109,-45 377,-188 606,-515 224,-318 269,-616 289,-739 0,-11 3,-46 -6,-53z" id="path180"/>
   <path class="fil0 str0" d="M4430 892c-4,-7 -40,-15 -48,-15 -135,-10 -424,-47 -789,86 -375,136 -575,362 -655,450 -3,5 -20,23 -18,30 2,7 26,10 32,10 114,25 418,64 794,-73 365,-133 569,-350 657,-442 5,-7 30,-35 27,-46z" id="path182"/>
   <path class="fil0 str0" d="M3907 2014c-4,-8 -42,-10 -50,-8 -135,15 -425,30 -761,222 -347,200 -504,457 -568,558 -1,4 -15,25 -10,32 2,7 27,7 32,7 118,3 421,-11 767,-211 337,-195 502,-446 573,-550 4,-10 24,-39 17,-50z" id="path184"/>
   <path class="fil0 str0" d="M3658 2626c-5,-9 -44,-7 -50,-4 -133,27 -422,65 -741,289 -326,226 -461,497 -515,605 0,2 -13,25 -10,31 5,4 28,4 35,2 115,-4 417,-47 746,-276 319,-222 460,-487 520,-598 5,-7 21,-41 15,-49z" id="path186"/>
   <path class="fil0 str0" d="M4211 1411c-4,-11 -42,-12 -49,-12 -134,4 -426,-9 -777,155 -364,170 -543,410 -614,507 -3,3 -17,23 -15,29 5,6 28,9 32,9 118,15 421,27 783,-143 354,-163 540,-399 619,-498 4,-6 27,-37 21,-47z" id="path188"/>
   <path class="fil0 str0" d="M5682 6095c-973,-3 -1909,32 -2723,-545 -787,-616 -1572,-738 -2460,-449 205,-428 718,-585 1686,-353 1833,1169 1672,1167 3502,1211l-5 136z" id="path190"/>
   <path class="fil0 str0" d="M5682 5875c-1840,-66 -2484,-520 -2589,-1904 181,-212 475,-439 751,-434 -798,912 27,2234 1843,2237l-5 101z" id="path192"/>
   <path class="fil0 str0" d="M5682 6095c-973,-3 -1909,32 -2723,-545 -224,-175 -431,-392 -639,-610 -413,-566 -1325,-1390 -2273,-1211 818,-419 1784,-199 2526,695 587,1559 2073,1493 3114,1573l-5 98z" id="path194"/>
   <path class="fil0 str0" d="M5682 5995c-1577,-64 -2566,-179 -3109,-1571 -85,-616 232,-1094 907,-1103 -221,106 -391,418 -375,650 56,1444 996,1861 2582,1903l-5 121z" id="path196"/>
   <path class="fil1 str0" d="M4038 5582c-945,-920 -945,-1636 -198,-2037" id="path198"/>
   <path class="fil1 str0" d="M3112 5317c-254,-155 -419,-363 -555,-535 -743,-945 -1534,-1330 -2468,-1073" id="path200"/>
   <path class="fil1 str0" d="M2357 4987c-744,-271 -1377,-277 -1848,108" id="path202"/>
   <path class="fil1 str0" d="M3467 3330c-924,267 -822,1340 93,2280" id="path204"/>
   <path class="fil0 str0" d="M5802 6209l53 0c20,0 34,-15 34,-36l0 -426c0,-20 -14,-35 -34,-35l-53 0c-20,0 -35,15 -35,35l0 426c0,21 15,36 35,36z" id="path206"/>
   <path class="fil0 str0" d="M5743 6256l-3 -1c-26,-10 -47,1 -56,26l-36 99c-10,25 0,46 26,55l3 1c25,9 46,-1 55,-26l37 -99c8,-24 -2,-46 -26,-55z" id="path208"/>
   <path class="fil2" d="M5999 -2c847,0 1539,691 1539,1539 0,847 -692,1540 -1539,1540 -848,0 -1540,-693 -1540,-1540 0,-848 692,-1539 1540,-1539z" id="path210"/>
   <path class="fil3" d="M5652 1192l-528 -166 407 384 -2 0 124 -215 1 0 0 -1 0 -1 218 -126 -375 -408 155 533zm351 -668l122 546 0 1 383 -407 -166 531 536 -157 -410 375 -126 -215 0 -3 -217 -125 -250 0 0 0 128 -546zm869 1526l-532 -167 158 536 -375 -409 217 -127 0 0 127 -216 0 -253 0 0 544 129 -544 124 -2 0 407 383zm-879 501l-123 -544 0 -1 -384 406 167 -529 217 124 251 0 0 0 -128 544zm-875 -512l408 -375 127 217 1 0 -536 158zm-133 -508l543 -121 0 252 0 0 -543 -131z" id="path212"/>
   <path class="fil4" d="M6000 2070c-296,0 -534,-238 -534,-532 0,-294 238,-533 534,-533 293,0 531,239 531,533 0,294 -238,532 -531,532z" id="path214"/>
   <path class="fil5" d="M6000 1107c235,0 429,195 429,432 0,236 -194,430 -429,430 -239,0 -433,-194 -433,-430 0,-237 194,-432 433,-432z" id="path216"/>
   <path class="fil6 str0" d="M5968 6174l53 0c21,0 35,-15 35,-36l0 -426c0,-20 -14,-35 -35,-35l-53 0c-20,0 -34,15 -34,35l0 426c0,21 14,36 34,36z" id="path218"/>
   <path class="fil7 str0" d="M3051 1322l-39 -47c-765,633 -1095,1501 -902,2759l126 98c-233,-1334 114,-2248 815,-2810z" id="path220"/>
   <path class="fil8 str0" d="M1005 2144c-8,6 -6,44 -3,53 26,133 64,422 287,737 231,329 499,462 606,518 2,0 25,12 32,7 4,-3 4,-27 4,-32 -6,-117 -49,-418 -278,-746 -221,-318 -485,-461 -597,-522 -8,-4 -43,-22 -51,-15z" id="path222"/>
   <path class="fil9 str0" d="M1779 1008c-11,0 -32,34 -33,39 -53,125 -189,385 -189,772 0,401 144,662 199,769 1,3 16,27 23,27 6,0 20,-20 21,-27 64,-98 200,-368 200,-769 0,-387 -133,-655 -190,-772 -3,-5 -21,-39 -31,-39z" id="path224"/>
   <path class="fil10 str0" d="M3063 521c-9,-7 -42,10 -48,15 -117,68 -376,204 -597,522 -229,327 -264,626 -279,744 0,5 -1,31 3,34 5,4 27,-3 32,-8 108,-45 377,-188 606,-515 224,-317 268,-616 288,-739 0,-11 3,-46 -5,-53z" id="path226"/>
   <path class="fil11 str0" d="M4395 858c-4,-8 -40,-16 -47,-16 -136,-9 -425,-47 -790,86 -375,136 -575,362 -655,451 -3,4 -20,22 -17,29 1,7 25,10 32,10 113,26 417,64 793,-72 365,-134 570,-350 657,-443 6,-7 31,-35 27,-45z" id="path228"/>
   <path class="fil12 str0" d="M3873 1979c-5,-8 -43,-10 -51,-8 -135,15 -425,30 -761,222 -346,200 -504,457 -568,558 -1,4 -15,25 -10,32 2,7 28,7 32,7 118,4 421,-11 767,-211 337,-195 502,-446 573,-550 5,-10 25,-38 18,-50z" id="path230"/>
   <path class="fil13 str0" d="M3624 2591c-6,-8 -45,-7 -51,-4 -133,28 -422,65 -740,289 -327,227 -461,497 -516,605 0,3 -13,25 -10,31 5,5 28,5 35,2 116,-4 418,-47 747,-276 318,-221 459,-487 520,-598 4,-7 21,-41 15,-49z" id="path232"/>
   <path class="fil14 str0" d="M4176 1376c-4,-10 -42,-12 -49,-12 -134,4 -425,-9 -777,155 -364,170 -543,410 -614,507 -2,3 -17,24 -14,29 4,7 27,9 32,9 118,15 421,27 783,-143 353,-163 539,-399 618,-498 4,-5 28,-37 21,-47z" id="path234"/>
   <path class="fil15 str0" d="M5647 6060c-973,-2 -1909,32 -2723,-545 -787,-615 -1571,-738 -2460,-449 205,-428 718,-585 1686,-353 1833,1169 1672,1168 3502,1211l-5 136z" id="path236"/>
   <path class="fil16 str0" d="M5647 5840c-1839,-66 -2484,-519 -2589,-1904 181,-212 475,-438 751,-434 -798,912 27,2234 1843,2237l-5 101z" id="path238"/>
   <path class="fil17 str0" d="M5647 6060c-973,-2 -1909,32 -2723,-545 -223,-174 -431,-391 -638,-610 -413,-566 -1326,-1390 -2274,-1211 819,-419 1784,-199 2526,695 587,1559 2073,1493 3114,1573l-5 98z" id="path240"/>
   <path class="fil18 str0" d="M5647 5960c-1576,-64 -2566,-178 -3109,-1571 -85,-615 232,-1094 908,-1103 -222,107 -392,418 -375,650 55,1445 995,1861 2581,1903l-5 121z" id="path242"/>
   <path class="fil1 str0" d="M4004 5547c-946,-920 -946,-1636 -199,-2037" id="path244"/>
   <path class="fil1 str0" d="M3077 5282c-254,-155 -419,-362 -554,-535 -743,-945 -1535,-1330 -2468,-1072" id="path246"/>
   <path class="fil1 str0" d="M2322 4953c-744,-272 -1377,-277 -1848,107" id="path248"/>
   <path class="fil1 str0" d="M3433 3295c-925,268 -823,1341 92,2280" id="path250"/>
   <path class="fil19 str0" d="M5767 6174l53 0c21,0 35,-15 35,-36l0 -426c0,-20 -14,-35 -35,-35l-53 0c-20,0 -35,15 -35,35l0 426c0,21 15,36 35,36z" id="path252"/>
   <path class="fil20 str0" d="M5708 6221l-3 -1c-26,-10 -47,1 -56,26l-36 99c-9,25 0,46 26,56l3 0c25,9 46,0 55,-26l37 -99c9,-24 -2,-46 -26,-55z" id="path254"/>
   <path class="fil21 str0" d="M8939 1322l38 -47c766,633 1096,1501 902,2759l-126 98c234,-1334 -113,-2248 -814,-2810z" id="path256"/>
   <path class="fil22 str0" d="M10984 2144c9,6 6,44 4,53 -26,133 -64,422 -288,737 -231,329 -499,462 -606,518 -1,0 -25,12 -32,7 -3,-3 -3,-27 -3,-32 6,-117 48,-418 278,-746 221,-318 485,-461 597,-522 8,-4 42,-22 50,-15z" id="path258"/>
   <path class="fil23 str0" d="M10211 1008c10,0 32,34 33,39 53,125 188,385 188,772 0,401 -143,662 -199,769 -1,3 -15,27 -22,27 -6,0 -20,-20 -21,-27 -64,-98 -201,-368 -201,-769 0,-387 133,-655 191,-772 3,-5 20,-39 31,-39z" id="path260"/>
   <path class="fil24 str0" d="M8927 521c9,-7 42,10 48,15 117,68 375,204 597,522 229,327 264,626 279,744 0,5 0,31 -3,34 -5,4 -27,-3 -32,-8 -109,-45 -377,-188 -606,-515 -224,-317 -268,-616 -288,-739 0,-11 -4,-46 5,-53z" id="path262"/>
   <path class="fil25 str0" d="M7594 858c5,-8 40,-16 48,-16 135,-9 425,-47 789,86 375,136 576,362 656,451 2,4 20,22 17,29 -2,7 -25,10 -32,10 -114,26 -418,64 -794,-72 -364,-134 -569,-350 -657,-443 -5,-7 -30,-35 -27,-45z" id="path264"/>
   <path class="fil26 str0" d="M8117 1979c4,-8 42,-10 50,-8 136,15 426,30 762,222 346,200 503,457 567,558 1,4 15,25 11,32 -3,7 -28,7 -32,7 -118,4 -421,-11 -768,-211 -337,-195 -502,-446 -573,-550 -4,-10 -24,-38 -17,-50z" id="path266"/>
   <path class="fil27 str0" d="M8366 2591c5,-8 44,-7 50,-4 133,28 422,65 741,289 326,227 461,497 516,605 0,3 13,25 9,31 -4,5 -28,5 -35,2 -115,-4 -417,-47 -746,-276 -319,-221 -459,-487 -520,-598 -5,-7 -21,-41 -15,-49z" id="path268"/>
   <path class="fil28 str0" d="M7813 1376c4,-10 43,-12 50,-12 133,4 425,-9 776,155 364,170 543,410 614,507 3,3 18,24 15,29 -4,7 -28,9 -32,9 -118,15 -421,27 -783,-143 -353,-163 -539,-399 -618,-498 -5,-5 -28,-37 -22,-47z" id="path270"/>
   <path class="fil29 str0" d="M6342 6060c974,-2 1909,32 2724,-545 786,-615 1571,-738 2459,-449 -205,-428 -718,-585 -1686,-353 -1832,1169 -1672,1168 -3502,1211l5 136z" id="path272"/>
   <path class="fil30 str0" d="M6342 5840c1840,-66 2484,-519 2589,-1904 -180,-212 -475,-438 -751,-434 798,912 -27,2234 -1843,2237l5 101z" id="path274"/>
   <path class="fil31 str0" d="M6342 6060c974,-2 1909,32 2724,-545 223,-174 430,-391 638,-610 413,-566 1325,-1390 2273,-1211 -818,-419 -1784,-199 -2526,695 -587,1559 -2073,1493 -3114,1573l5 98z" id="path276"/>
   <path class="fil32 str0" d="M6342 5960c1577,-64 2567,-178 3109,-1571 85,-615 -232,-1094 -907,-1103 221,107 392,418 375,650 -56,1445 -996,1861 -2582,1903l5 121z" id="path278"/>
   <path class="fil1 str0" d="M7986 5547c945,-920 945,-1636 199,-2037" id="path280"/>
   <path class="fil1 str0" d="M8912 5282c254,-155 419,-362 555,-535 743,-945 1535,-1330 2468,-1072" id="path282"/>
   <path class="fil1 str0" d="M9667 4953c744,-272 1377,-277 1849,107" id="path284"/>
   <path class="fil1 str0" d="M8557 3295c925,268 822,1341 -93,2280" id="path286"/>
   <path class="fil33 str0" d="M6223 6174l-53 0c-21,0 -35,-15 -35,-36l0 -426c0,-20 14,-35 35,-35l53 0c20,0 34,15 34,35l0 426c0,21 -14,36 -34,36z" id="path288"/>
   <path class="fil34 str0" d="M6282 6221l2 -1c26,-10 47,1 57,26l35 99c10,25 0,46 -26,56l-2 0c-26,9 -46,0 -56,-26l-36 -99c-9,-24 1,-46 26,-55z" id="path290"/>
   <polygon class="fil0 str1" points="7778,2860 7830,2839 7939,2938 7838,2982 " id="polygon292"/>
   <path class="fil0 str0" d="M4552 5034l87 -40c32,67 75,110 130,125 -96,29 -172,-22 -217,-85z" id="path294"/>
   <path class="fil0 str0" d="M5689 3999l1702 -770 64 133 -1702 771 -64 -134zm850 -385m884 -320m-819 455m-883 316" id="path296"/>
   <path class="fil0 str0" d="M7593 3135l163 337 -139 64 -162 -338 138 -63zm82 168m12 201m-152 -137m-10 -201" id="path298"/>
   <path class="fil0 str0" d="M8085 3075l-358 162 -64 -134 358 -162 64 134zm-179 81m-211 15m147 -149m211 -13" id="path300"/>
   <path class="fil0 str0" d="M4362 5184c345,144 549,-45 532,-444l39 -17c31,532 -262,624 -609,503l38 -42z" id="path302"/>
   <path class="fil0 str0" d="M2825 5777l1322 -857c425,46 519,-85 394,-414l754 -338 100 210 2089 -952 68 142 -2783 1259c-44,201 -235,292 -354,333l-1317 1399c-104,121 -191,70 -212,-71 -39,-194 -66,-477 -61,-711z" id="path304"/>
   <path class="fil0 str0" d="M4662 4450l87 -39c56,55 85,120 96,200l-87 39c-3,-81 -36,-150 -96,-200z" id="path306"/>
   <path class="fil0 str0" d="M4845 4367l87 -39c56,55 85,119 95,200l-87 40c-2,-82 -35,-150 -95,-201z" id="path308"/>
   <path class="fil0 str0" d="M5030 4284l87 -40c56,55 85,120 96,201l-87 39c-3,-82 -36,-150 -96,-200z" id="path310"/>
   <path class="fil0 str0" d="M3969 3089c212,68 546,141 829,348l3034 2186c47,114 87,140 116,84l101 -218c18,-38 2,-55 -27,-76l-3089 -2225c-225,-157 -618,-163 -964,-99z" id="path312"/>
   <path class="fil0 str0" d="M8099 5906c307,100 165,-83 350,-195 -291,-94 -151,68 -350,195z" id="path314"/>
   <path class="fil0 str0" d="M8302 6052c307,101 165,-82 351,-194 -292,-95 -152,68 -351,194z" id="path316"/>
   <path class="fil0 str0" d="M8503 6197c308,101 165,-82 351,-194 -291,-95 -151,68 -351,194z" id="path318"/>
   <path class="fil0 str0" d="M8701 6340c307,101 165,-83 351,-195 -291,-94 -151,69 -351,195z" id="path320"/>
   <path class="fil0 str0" d="M8899 6483c307,101 165,-83 351,-195 -291,-94 -151,68 -351,195z" id="path322"/>
   <path class="fil0 str0" d="M7966 5835l84 61c578,-1109 1625,-395 1146,827l80 56c602,-1137 -472,-2471 -1310,-944z" id="path324"/>
   <polygon class="fil35 str1" points="7744,2826 7795,2804 7904,2903 7803,2947 " id="polygon326"/>
   <path class="fil36 str0" d="M4518 4999l86 -39c33,66 75,109 130,125 -96,28 -172,-23 -216,-86z" id="path328"/>
   <path class="fil37 str0" d="M5654 3964l1702 -770 65 133 -1703 771 -64 -134zm850 -385m885 -319m-820 454m-883 317" id="path330"/>
   <path class="fil38 str0" d="M7559 3100l162 338 -139 63 -162 -338 139 -63zm81 168m12 201m-151 -137m-11 -201" id="path332"/>
   <path class="fil39 str0" d="M8050 3040l-358 162 -64 -134 358 -162 64 134zm-179 82m-211 14m147 -149m211 -13" id="path334"/>
   <path class="fil40 str0" d="M4328 5150c344,144 548,-45 532,-445l39 -17c30,532 -262,624 -610,503l39 -41z" id="path336"/>
   <path class="fil41 str0" d="M2790 5743l1322 -857c426,46 519,-86 394,-414l754 -339 101 210 2088 -951 68 141 -2782 1259c-45,201 -236,293 -354,333l-1317 1399c-105,121 -191,70 -213,-70 -38,-195 -65,-478 -61,-711z" id="path338"/>
   <path class="fil42 str0" d="M4627 4415l87 -39c56,55 85,120 96,201l-87 39c-3,-82 -36,-150 -96,-201z" id="path340"/>
   <path class="fil43 str0" d="M4810 4333l87 -39c56,54 85,119 96,199l-87 40c-3,-81 -36,-150 -96,-200z" id="path342"/>
   <path class="fil44 str0" d="M4995 4249l87 -40c56,55 85,120 96,201l-87 39c-3,-82 -36,-150 -96,-200z" id="path344"/>
   <path class="fil45 str0" d="M3934 3054c212,69 546,142 829,348l3034 2186c47,115 87,141 117,84l100 -218c18,-38 2,-55 -26,-76l-3089 -2225c-226,-157 -619,-162 -965,-99z" id="path346"/>
   <path class="fil46 str0" d="M8064 5871c307,101 165,-82 351,-194 -292,-95 -151,67 -351,194z" id="path348"/>
   <path class="fil47 str0" d="M8267 6018c307,100 165,-83 351,-195 -292,-94 -151,68 -351,195z" id="path350"/>
   <path class="fil48 str0" d="M8468 6163c308,100 165,-83 351,-195 -291,-94 -151,68 -351,195z" id="path352"/>
   <path class="fil49 str0" d="M8666 6305c308,102 165,-82 351,-194 -291,-95 -151,68 -351,194z" id="path354"/>
   <path class="fil50 str0" d="M8864 6448c308,101 165,-83 351,-195 -291,-94 -151,69 -351,195z" id="path356"/>
   <path class="fil51 str0" d="M7931 5801l84 61c578,-1110 1625,-395 1146,826l80 56c603,-1137 -471,-2470 -1310,-943z" id="path358"/>
   <path class="fil52" d="M5998 -3c847,0 1540,693 1540,1540 0,848 -693,1540 -1540,1540 -847,0 -1539,-692 -1539,-1540 0,-847 692,-1540 1539,-1540z" id="path360"/>
   <path class="fil3" d="M5652 1192l-528 -166 407 384 -2 0 124 -215 1 0 0 -1 0 -1 218 -126 -375 -408 155 533zm351 -668l122 546 0 1 383 -407 -166 531 536 -157 -410 375 -126 -215 0 -3 -217 -125 -250 0 0 0 128 -546zm869 1526l-532 -167 158 536 -375 -409 217 -127 0 0 127 -216 0 -253 0 0 544 129 -544 124 -2 0 407 383zm-879 501l-123 -544 0 -1 -384 406 167 -529 217 124 251 0 0 0 -128 544zm-875 -512l408 -375 127 217 1 0 -536 158zm-133 -508l543 -121 0 252 0 0 -543 -131z" id="path362"/>
   <path class="fil4" d="m 5622.1121,1913.8879 c -208.5965,-208.5965 -208.5965,-545.1793 0,-753.7758 207.1823,-207.1823 545.1793,-208.59651 753.7758,0 207.8894,207.8894 207.1823,546.5935 0,753.7758 -208.5965,208.5965 -545.8864,207.8894 -753.7758,0 z" id="path364" style="fill:url(#linearGradient4121);fill-opacity:1" inkscape:connector-curvature="0"/>
   <path class="fil53" d="M5998 1108c238,0 430,192 430,430 0,238 -192,432 -430,432 -238,0 -432,-194 -432,-432 0,-238 194,-430 432,-430z" id="path366"/>
  </g>
 </g>
</svg>